<svg width="1280" height="1280" viewBox="0 0 1280 1280" fill="none" xmlns="http://www.w3.org/2000/svg">
<g clip-path="url(#clip0_897_6377)">
<path d="M1280 640C1280 993.462 993.462 1280 640 1280C286.538 1280 0 993.462 0 640C0 286.538 286.538 0 640 0C993.462 0 1280 286.538 1280 640ZM63.0383 640C63.0383 958.647 321.353 1216.96 640 1216.96C958.647 1216.96 1216.96 958.647 1216.96 640C1216.96 321.353 958.647 63.0383 640 63.0383C321.353 63.0383 63.0383 321.353 63.0383 640Z" fill="#FCA61F"/>
<path d="M827.616 771.38L653 946.151L478.384 771.38C347.513 777.059 243 884.23 243 1016.5V1034.09C243 1082.63 275.031 1177.26 323.536 1177.26L515.64 1245H845.513L1008.37 1142.86C1056.87 1142.86 1063 1082.63 1063 1034.09V1016.5C1063 884.23 958.487 777.059 827.616 771.38ZM267.893 330.238L279.607 332.986V439.974C266.795 447.668 257.643 461.042 257.643 477.163C257.643 492.552 266.062 505.376 277.96 513.253L249.406 627.386C246.295 640.027 253.25 653.034 263.317 653.034H339.826C349.893 653.034 356.848 640.027 353.737 627.386L325.183 513.253C337.08 505.376 345.5 492.552 345.5 477.163C345.5 461.042 336.348 447.668 323.536 439.974V343.612L444.339 372.74C428.598 404.25 418.714 439.424 418.714 477.163C418.714 606.685 523.594 711.657 653 711.657C782.406 711.657 887.286 606.685 887.286 477.163C887.286 439.424 877.585 404.25 861.661 372.74L1037.92 330.238C1071.24 322.177 1071.24 280.591 1037.92 272.531L689.424 188.259C665.629 182.58 640.554 182.58 616.759 188.259L267.893 272.347C234.763 280.408 234.763 322.177 267.893 330.238Z" fill="#FCA61F"/>
</g>
<defs>
<clipPath id="clip0_897_6377">
<rect width="1280" height="1280" fill="white"/>
</clipPath>
</defs>
</svg>
