<svg width="1302" height="1280" viewBox="0 0 1302 1280" fill="none" xmlns="http://www.w3.org/2000/svg">
<path d="M1302 640C1302 724.046 1285.16 807.269 1252.45 884.917C1219.73 962.566 1171.78 1033.12 1111.33 1092.55C1050.88 1151.98 979.11 1199.12 900.127 1231.28C821.144 1263.45 736.491 1280 651 1280C478.344 1280 312.76 1212.57 190.673 1092.55C68.5873 972.525 0 809.738 0 640C0 470.261 68.5873 307.475 190.673 187.452C312.76 67.4284 478.344 0 651 0C736.491 0 821.144 16.5541 900.127 48.7171C979.11 80.8801 1050.88 128.022 1111.33 187.452C1171.78 246.881 1219.73 317.434 1252.45 395.083C1285.16 472.731 1302 555.954 1302 640ZM974.722 700.304C975.249 700.409 975.745 700.631 976.175 700.953C976.604 701.276 976.956 701.69 977.204 702.167C977.451 702.643 977.589 703.169 977.607 703.706C977.624 704.242 977.521 704.776 977.305 705.268C947.65 772.045 902.128 825.205 854.995 880.143C796.759 948.026 816.551 1062.19 841.04 1138.93C846.139 1154.9 854.593 1168.55 863.348 1182.74C863.883 1183.6 864.705 1184.24 865.669 1184.55C866.633 1184.87 867.676 1184.83 868.615 1184.45C1089.75 1095.1 1243.46 888.661 1245.71 648.284C1248.43 353.808 1033.06 108.198 743.588 62.4505C326.708 -3.42102 -33.9489 377.118 75.8818 788.815C128.751 987.033 284.406 1140.81 478.404 1199.51C481.222 1200.35 483.447 1199.56 485.08 1197.12C493.489 1184.62 500.265 1171.73 505.409 1158.45C512.588 1139.91 509.066 1114.15 504.604 1096C499.304 1074.6 482.832 1074.5 463.442 1077.92C438.931 1082.22 422.147 1085.36 413.089 1087.35C359.181 1099.32 369.312 1025.1 374.545 997.464C374.813 996.122 374.69 994.825 374.176 993.573C369.904 983.265 364.134 973.863 356.866 965.366C356.608 965.065 356.427 964.703 356.34 964.312C356.252 963.921 356.26 963.511 356.363 963.119L361.596 943.163C361.738 942.631 361.742 942.073 361.607 941.543C361.472 941.014 361.202 940.532 360.824 940.145L352.605 931.659C351.73 930.754 351.113 929.633 350.818 928.412C350.523 927.191 350.561 925.915 350.928 924.717L361.462 889.903C361.954 888.277 361.865 886.532 361.21 884.965C360.555 883.398 359.375 882.108 357.872 881.316C345.259 874.642 323.051 866.593 315.637 857.302C296.717 833.623 343.85 799.178 354.92 781.637C371.224 755.845 371.291 735.487 366.46 703.725C360.668 665.87 363.586 628.116 375.216 590.462C375.371 589.932 375.722 589.48 376.2 589.194C376.678 588.909 377.248 588.811 377.799 588.919L729.431 654.455C729.623 654.49 729.82 654.481 730.009 654.432C730.198 654.382 730.373 654.292 730.523 654.167C730.673 654.042 730.794 653.887 730.878 653.711C730.962 653.535 731.006 653.342 731.008 653.147L730.974 636.344C730.975 635.706 730.788 635.081 730.437 634.545C730.085 634.009 729.584 633.586 728.995 633.326L712.759 626.349C712.229 626.126 711.645 626.071 711.086 626.191C710.528 626.311 710.022 626.601 709.639 627.02L698.468 639.463C695.65 642.594 692.754 642.683 689.78 639.732L661.903 612.095C661.429 611.623 661.056 611.06 660.807 610.44C660.558 609.82 660.438 609.155 660.454 608.487C660.469 607.819 660.621 607.161 660.899 606.553C661.176 605.945 661.575 605.4 662.07 604.951L675.858 592.407C676.191 592.103 676.419 591.7 676.509 591.254C676.6 590.808 676.548 590.344 676.361 589.926L669.283 573.357C669.054 572.825 668.673 572.374 668.188 572.063C667.703 571.752 667.138 571.595 666.565 571.613L650.53 571.948C646.035 572.038 643.788 569.835 643.788 565.341V528.615C643.788 527.118 644.38 525.681 645.436 524.619C646.492 523.557 647.926 522.956 649.423 522.947L667.002 522.88C667.51 522.881 668.007 522.731 668.43 522.451C668.854 522.171 669.185 521.772 669.383 521.304L676.395 505.171C676.59 504.726 676.64 504.23 676.538 503.754C676.436 503.279 676.186 502.847 675.824 502.522L662.506 490.783C661.94 490.288 661.482 489.683 661.158 489.004C660.835 488.325 660.654 487.587 660.626 486.833C660.597 486.08 660.723 485.328 660.994 484.623C661.266 483.919 661.677 483.275 662.204 482.733L690.316 454.024C690.77 453.559 691.314 453.191 691.914 452.944C692.513 452.696 693.157 452.573 693.804 452.582C694.451 452.592 695.089 452.733 695.677 452.998C696.266 453.264 696.793 453.647 697.227 454.124L710.276 468.345C710.637 468.734 711.116 468.995 711.641 469.092C712.166 469.189 712.711 469.115 713.195 468.882L729.364 460.933C730.505 460.374 731.064 459.457 731.041 458.183L730.438 438.025C730.393 436.639 731.064 435.946 732.45 435.946L777.47 435.778C777.738 435.774 778.005 435.823 778.255 435.924C778.505 436.024 778.733 436.174 778.926 436.364C779.119 436.554 779.274 436.78 779.381 437.031C779.488 437.282 779.545 437.551 779.55 437.824L779.583 457.21C779.593 458.362 779.945 459.487 780.596 460.442C781.246 461.397 782.166 462.14 783.24 462.576L797.329 468.311C798.626 468.848 799.744 468.602 800.684 467.574L813.633 453.521C813.986 453.133 814.415 452.822 814.893 452.607C815.371 452.391 815.888 452.274 816.412 452.265C816.936 452.256 817.457 452.353 817.942 452.552C818.428 452.75 818.868 453.046 819.235 453.42L849.661 483.807C849.993 484.136 850.254 484.529 850.429 484.962C850.605 485.396 850.69 485.86 850.681 486.327C850.671 486.794 850.567 487.254 850.375 487.68C850.182 488.106 849.905 488.488 849.561 488.804L834.901 502.119C834.464 502.51 834.164 503.029 834.043 503.602C833.923 504.176 833.988 504.772 834.23 505.305L841.61 521.438C841.886 522.053 842.341 522.571 842.915 522.924C843.49 523.277 844.157 523.449 844.831 523.417L862.51 522.545C863.055 522.517 863.6 522.601 864.112 522.791C864.624 522.981 865.092 523.274 865.487 523.65C865.883 524.027 866.197 524.479 866.412 524.981C866.627 525.483 866.737 526.024 866.736 526.57L866.803 570.473C866.803 571.702 866.2 572.295 864.992 572.25L844.294 571.345C843.786 571.325 843.282 571.458 842.846 571.727C842.411 571.995 842.062 572.387 841.845 572.854L834.297 589.389C834.042 589.947 833.966 590.569 834.081 591.165C834.195 591.761 834.494 592.301 834.934 592.709L849.292 606.226C849.65 606.559 849.936 606.962 850.134 607.409C850.332 607.856 850.437 608.339 850.443 608.827C850.449 609.316 850.357 609.801 850.17 610.253C849.984 610.706 849.708 611.115 849.359 611.458L821.885 638.692C818.173 642.381 814.527 642.325 810.949 638.524L800.046 626.953C799.707 626.582 799.257 626.328 798.757 626.225C798.258 626.123 797.736 626.178 797.262 626.383L781.227 633.259C780.742 633.465 780.33 633.812 780.043 634.254C779.756 634.696 779.608 635.214 779.617 635.74V654.925C779.622 655.459 779.518 655.989 779.31 656.481C779.102 656.973 778.795 657.416 778.407 657.785C778.02 658.153 777.562 658.437 777.06 658.62C776.558 658.804 776.024 658.881 775.49 658.849L756.067 657.843C754.882 657.798 754.625 658.268 755.296 659.252C755.586 659.654 755.989 659.9 756.503 659.989C829.925 672.802 902.665 686.24 974.722 700.304ZM793.136 547.465C793.136 537.413 789.142 527.773 782.033 520.666C774.924 513.558 765.282 509.565 755.228 509.565C745.175 509.565 735.533 513.558 728.424 520.666C721.315 527.773 717.321 537.413 717.321 547.465C717.321 552.442 718.302 557.37 720.207 561.968C722.112 566.566 724.904 570.744 728.424 574.264C731.944 577.783 736.123 580.575 740.722 582.479C745.321 584.384 750.25 585.364 755.228 585.364C760.207 585.364 765.136 584.384 769.735 582.479C774.334 580.575 778.513 577.783 782.033 574.264C785.553 570.744 788.345 566.566 790.25 561.968C792.155 557.37 793.136 552.442 793.136 547.465Z" fill="#FCA61F"/>
<path d="M640.732 329.157L699.807 310.241C701.038 309.837 702.38 309.933 703.55 310.509C704.72 311.084 705.627 312.095 706.08 313.327C707.511 317.284 705.733 319.99 700.746 321.443C680.327 327.369 660.256 333.64 640.53 340.259C639.836 340.49 639.091 340.531 638.376 340.377C637.66 340.223 636.998 339.88 636.46 339.383C635.922 338.886 635.527 338.254 635.317 337.553C635.106 336.851 635.088 336.106 635.264 335.396L635.8 333.216C636.136 331.941 635.856 330.812 634.962 329.828C629.147 323.433 622.035 319.42 613.626 317.787C613.049 317.683 612.504 317.455 612.028 317.118C611.553 316.782 611.159 316.346 610.875 315.842C601.214 298.905 595.645 278.446 577.698 267.579C543.045 246.583 512.451 228.472 514.799 181.248C517.885 118.731 581.12 79.8585 637.176 110.648C682.497 135.568 681.356 170.583 676.794 216.364C675.083 233.536 689.776 254.834 697.19 270.027C699.024 273.828 698.018 278.077 694.171 282.772C693.478 283.6 693.265 284.539 693.534 285.59L695.815 294.846C695.948 295.404 695.892 295.99 695.655 296.513C695.418 297.035 695.014 297.464 694.506 297.731C676.391 307.211 658.142 316.245 639.759 324.831C638.574 325.39 638.205 326.463 638.652 328.05C638.965 329.124 639.658 329.493 640.732 329.157Z" fill="#FCA61F"/>
<path d="M706.889 324.014L644.974 342.939C642.281 343.762 640.765 346.612 641.588 349.305L641.667 349.562C642.49 352.254 645.341 353.769 648.034 352.946L709.949 334.021C712.642 333.198 714.158 330.347 713.335 327.655L713.256 327.398C712.433 324.706 709.582 323.19 706.889 324.014Z" fill="#FCA61F"/>
<path d="M713.152 337.132L652.01 356.289C649.234 357.158 647.69 360.113 648.559 362.888L648.66 363.208C649.53 365.983 652.485 367.528 655.26 366.658L716.402 347.501C719.178 346.632 720.723 343.677 719.853 340.902L719.752 340.582C718.883 337.807 715.927 336.262 713.152 337.132Z" fill="#FCA61F"/>
<path d="M597.69 462.573C598.337 462.172 598.853 461.591 599.175 460.901C599.497 460.212 599.612 459.444 599.505 458.69C599.399 457.937 599.075 457.23 598.574 456.657C598.073 456.084 597.417 455.669 596.684 455.463C586.62 452.646 581.353 445.859 580.884 435.104C580.864 434.532 580.683 433.977 580.363 433.503C580.043 433.029 579.595 432.654 579.072 432.421C574.599 430.431 571.155 431.314 568.74 435.071C565.162 440.594 560.644 443.009 555.187 442.315C553.979 442.159 552.839 442.327 551.765 442.819C543.312 446.609 534.522 445.401 526.706 447.95C492.444 459.108 458.227 470.377 424.054 481.758C422.913 482.125 421.953 482.916 421.371 483.971L417.245 491.317C416.957 491.826 416.575 492.272 416.12 492.629C415.665 492.986 415.147 493.247 414.594 493.396L407.348 495.308C406.742 495.462 406.203 495.812 405.815 496.303C405.427 496.794 405.212 497.399 405.201 498.024C404.329 532.872 371.487 554.035 341.43 532.906C281.65 490.881 339.417 394.22 393.695 457.811C394.053 458.233 394.55 458.515 395.096 458.608C395.642 458.7 396.204 458.596 396.681 458.314C402.227 455.049 407.237 455.664 411.709 460.158C412.671 461.12 413.8 461.388 415.098 460.963C450.478 449.269 485.769 437.575 520.97 425.881C523.139 425.143 526.427 423.41 530.832 420.683C536.669 417.06 543.848 417.027 549.484 411.66C550.312 410.878 551.273 410.609 552.369 410.855C558.363 412.152 564.211 411.85 569.914 409.95C597.221 400.872 624.539 391.883 651.868 382.984C671.023 376.746 677.027 398.882 662.3 403.611C655.904 405.668 650.503 407.222 646.098 408.273C645.561 408.407 645.066 408.673 644.658 409.047C644.25 409.421 643.942 409.891 643.762 410.414C643.582 410.937 643.536 411.497 643.628 412.043C643.719 412.589 643.945 413.103 644.286 413.539C651.062 422.125 651.04 430.521 644.219 438.727C643.844 439.176 643.642 439.746 643.648 440.335C643.654 440.924 643.868 441.495 644.253 441.947C646.645 444.719 649.788 446.105 653.679 446.105C654.976 446.128 655.815 446.754 656.195 447.984L659.181 457.71C659.39 458.393 659.322 459.133 658.991 459.776C658.66 460.419 658.091 460.916 657.403 461.165L635.497 468.745C634.963 468.927 634.378 468.893 633.87 468.648C633.361 468.403 632.97 467.968 632.78 467.437L628.083 453.853C627.875 453.246 627.546 452.688 627.114 452.214C626.682 451.74 626.158 451.359 625.573 451.095C624.988 450.831 624.356 450.689 623.714 450.679C623.073 450.669 622.436 450.79 621.844 451.036C620.278 451.684 619.093 452.869 618.288 454.591C617.773 455.687 617.773 456.771 618.288 457.844L622.582 467C624.147 470.332 623.163 472.557 619.63 473.675L600.441 479.779C599.278 480.137 598.283 479.868 597.455 478.974C591.059 472.11 591.137 466.643 597.69 462.573ZM370.936 519.035C376.786 517.09 381.359 512.105 383.649 505.179C385.939 498.253 385.759 489.952 383.147 482.102C380.535 474.252 375.706 467.497 369.723 463.323C363.739 459.148 357.091 457.896 351.241 459.842C345.39 461.787 340.817 466.772 338.527 473.698C336.237 480.624 336.417 488.925 339.029 496.775C341.641 504.624 346.47 511.38 352.453 515.554C358.437 519.729 365.085 520.981 370.936 519.035Z" fill="#FCA61F"/>
<path d="M880.783 481.15C885.278 469.724 882.415 463.341 872.195 461.999C871.217 461.874 870.283 461.521 869.467 460.967C868.652 460.414 867.978 459.676 867.501 458.813C867.024 457.951 866.757 456.988 866.722 456.003C866.686 455.019 866.883 454.039 867.297 453.145L879.911 425.978C880.47 424.77 881.398 424.278 882.695 424.502C887.861 425.441 892.591 427.599 896.885 430.975C897.342 431.344 897.917 431.534 898.504 431.509C899.09 431.484 899.648 431.247 900.072 430.841L910.136 421.416C910.545 421.034 910.824 420.53 910.932 419.977C911.04 419.423 910.973 418.848 910.74 418.331L904.835 405.15C904.686 404.827 904.607 404.476 904.603 404.12C904.6 403.764 904.671 403.41 904.813 403.082C904.955 402.753 905.165 402.457 905.429 402.212C905.693 401.968 906.005 401.78 906.345 401.662L938.013 390.426C938.649 390.203 939.33 390.136 939.997 390.232C940.664 390.328 941.297 390.583 941.841 390.976C942.386 391.368 942.826 391.887 943.123 392.486C943.421 393.086 943.566 393.749 943.548 394.417C943.302 405.977 949.251 410.706 961.395 408.604C962.647 408.403 963.519 407.721 964.011 406.558L969.278 394.786C969.52 394.237 969.87 393.741 970.308 393.33C970.746 392.919 971.262 392.601 971.826 392.394C972.39 392.188 972.99 392.097 973.589 392.128C974.189 392.158 974.776 392.309 975.316 392.573L1003.8 406.29C1004.29 406.533 1004.7 406.926 1004.96 407.414C1005.22 407.902 1005.32 408.46 1005.24 409.007C1004.55 413.993 1002.31 418.23 998.53 421.718C998.044 422.156 997.75 422.768 997.712 423.421C997.674 424.074 997.896 424.716 998.329 425.206L1007.79 436.14C1008.25 436.662 1008.87 437.013 1009.55 437.135C1010.23 437.257 1010.94 437.143 1011.55 436.811L1020.74 431.713C1021.39 431.348 1022.12 431.128 1022.86 431.069C1023.61 431.01 1024.36 431.112 1025.07 431.37C1025.78 431.627 1026.42 432.034 1026.96 432.562C1027.49 433.09 1027.91 433.727 1028.19 434.43L1038.92 462.301C1039.14 462.877 1039.24 463.491 1039.22 464.107C1039.19 464.724 1039.04 465.328 1038.77 465.884C1038.51 466.44 1038.13 466.935 1037.66 467.34C1037.2 467.745 1036.66 468.05 1036.07 468.238L1022.82 472.497C1021.63 472.855 1021.03 473.649 1021.01 474.878L1020.6 487.59C1020.58 488.145 1020.74 488.691 1021.05 489.149C1021.35 489.607 1021.8 489.954 1022.31 490.139L1033.69 494.331C1034.35 494.58 1034.96 494.964 1035.47 495.459C1035.98 495.953 1036.38 496.547 1036.65 497.203C1036.92 497.859 1037.05 498.562 1037.03 499.269C1037.01 499.975 1036.84 500.67 1036.54 501.307L1023.09 529.984C1022.95 530.284 1022.75 530.553 1022.5 530.776C1022.26 530.999 1021.97 531.172 1021.66 531.284C1021.35 531.396 1021.02 531.446 1020.69 531.43C1020.36 531.414 1020.03 531.333 1019.73 531.191L1005.94 524.55C1004.83 524.014 1003.82 524.159 1002.92 524.986L993.398 533.673C992.961 534.063 992.661 534.583 992.54 535.156C992.419 535.729 992.485 536.326 992.727 536.859L998.128 548.833C998.338 549.288 998.451 549.782 998.459 550.283C998.467 550.784 998.37 551.281 998.174 551.742C997.978 552.204 997.688 552.619 997.321 552.961C996.955 553.303 996.521 553.565 996.048 553.73L965.923 564.496C965.262 564.731 964.555 564.809 963.858 564.724C963.161 564.64 962.494 564.394 961.908 564.007C961.322 563.62 960.835 563.102 960.484 562.494C960.133 561.886 959.928 561.205 959.885 560.505C959.214 548.855 952.986 544.35 941.2 546.988C940.082 547.234 939.299 547.894 938.851 548.967L934.222 559.8C932.88 562.953 930.666 563.791 927.58 562.316L900.877 549.437C900.267 549.141 899.724 548.722 899.283 548.207C898.842 547.692 898.512 547.091 898.314 546.443C898.115 545.794 898.053 545.112 898.13 544.438C898.208 543.764 898.423 543.114 898.764 542.527L904.903 532.063C905.484 531.057 905.395 530.129 904.634 529.279L895.644 519.117C895.241 518.664 894.699 518.359 894.104 518.25C893.508 518.14 892.893 518.233 892.356 518.513L881.789 523.879C881.194 524.181 880.542 524.353 879.875 524.384C879.209 524.416 878.543 524.306 877.922 524.062C877.301 523.818 876.739 523.446 876.272 522.969C875.806 522.493 875.445 521.923 875.214 521.297L863.775 490.273C863.673 490.004 863.627 489.718 863.638 489.431C863.65 489.145 863.719 488.864 863.841 488.607C863.964 488.349 864.137 488.12 864.351 487.934C864.564 487.748 864.813 487.608 865.083 487.523L878.77 483.062C879.732 482.749 880.403 482.112 880.783 481.15ZM980.684 477.595C980.684 473.781 979.932 470.004 978.472 466.48C977.012 462.956 974.872 459.754 972.175 457.057C969.477 454.36 966.275 452.22 962.75 450.761C959.225 449.301 955.448 448.55 951.633 448.55C943.928 448.55 936.539 451.61 931.09 457.057C925.642 462.504 922.581 469.892 922.581 477.595C922.581 485.298 925.642 492.686 931.09 498.133C936.539 503.58 943.928 506.64 951.633 506.64C955.448 506.64 959.225 505.889 962.75 504.429C966.275 502.97 969.477 500.83 972.175 498.133C974.872 495.436 977.012 492.234 978.472 488.71C979.932 485.186 980.684 481.409 980.684 477.595Z" fill="#FCA61F"/>
</svg>
